<svg version="1.1" id="Layer_1" xmlns="http://www.w3.org/2000/svg" xmlns:xlink="http://www.w3.org/1999/xlink" x="0px" y="0px"
	 width="100%" viewBox="0 0 325 103" enable-background="new 0 0 325 103" xml:space="preserve">
<path fill="#FCFCFC" opacity="1.000000" stroke="none" 
	d="
M106.000000,1.000000 
	C179.333328,1.000000 252.666641,1.000000 326.000000,1.000000 
	C326.000000,35.333321 326.000000,69.666641 326.000000,103.999985 
	C219.000031,104.000000 112.000046,104.008492 5.000185,103.896843 
	C3.747400,103.895538 0.685118,105.963211 1.468657,101.498970 
	C28.623823,100.961166 55.310333,100.924400 82.463051,100.925797 
	C87.953758,100.938156 92.978249,100.912346 98.456711,100.926384 
	C101.480225,100.966232 104.049782,100.966232 106.894035,100.966232 
	C106.894035,78.767891 106.894035,57.392750 106.928879,35.549065 
	C106.972496,25.589043 107.026283,16.097183 106.945351,6.606471 
	C106.931992,5.040324 106.328438,3.479210 105.998573,1.687201 
	C105.999504,1.458633 106.000000,1.000000 106.000000,1.000000 
M242.027588,48.096039 
	C243.465210,47.907925 244.902832,47.719814 246.671371,46.989731 
	C252.255417,45.840206 253.894928,41.502468 253.726959,36.798836 
	C253.572479,32.473423 252.703339,27.777929 246.815598,26.078913 
	C244.602127,24.741348 242.416428,23.573298 240.249786,26.931564 
	C232.347717,30.876017 232.201263,41.754311 240.397552,46.872734 
	C240.775681,47.051865 241.153793,47.230995 242.027588,48.096039 
M218.719833,28.345932 
	C220.426071,28.298641 222.132294,28.251348 223.883041,29.114208 
	C223.883041,35.164894 223.883041,41.215580 223.883041,47.384102 
	C225.100937,47.243328 226.007736,47.212967 226.012985,47.127289 
	C226.402679,40.775978 226.721054,34.420292 227.860733,27.908667 
	C229.723953,27.691507 231.587173,27.474350 233.450394,27.257191 
	C233.397552,26.904215 233.344696,26.551237 233.291840,26.198259 
	C231.166962,26.198259 229.042099,26.198259 226.211197,26.120037 
	C225.501968,26.148691 224.792740,26.177345 223.244888,25.976570 
	C221.540298,26.746313 218.455276,23.930431 217.656906,28.408798 
	C217.342209,28.901316 217.027496,29.393833 216.712784,29.886351 
	C216.927246,29.987625 217.141724,30.088898 217.356186,30.190172 
	C217.555267,29.437187 217.754333,28.684202 218.719833,28.345932 
M257.992523,45.789562 
	C258.622528,46.268906 259.252533,46.748249 259.882538,47.227592 
	C260.188232,46.479790 260.493896,45.731987 260.956909,44.123013 
	C260.970428,42.079960 260.983917,40.036907 261.714874,37.733650 
	C263.307251,39.679253 264.781525,41.739548 266.526733,43.536736 
	C268.125183,45.182816 270.016266,46.544727 271.778412,48.031864 
	C271.888641,47.755314 271.998871,47.478767 272.109131,47.202217 
	C270.421844,43.855701 268.734558,40.509186 267.753174,36.980087 
	C268.790771,34.817356 271.223083,31.849953 270.546051,30.676487 
	C269.473602,28.817644 266.430328,27.701830 264.016602,27.121426 
	C261.590118,26.537960 258.913940,26.993082 256.780243,26.993082 
	C257.199921,28.628483 257.570557,30.072643 257.811127,32.170708 
	C257.856323,33.276794 257.901520,34.382885 257.993530,36.452023 
	C258.049316,39.297142 258.105103,42.142262 257.992523,45.789562 
M181.044800,28.900372 
	C183.335953,28.589201 185.627121,28.278028 188.038986,28.705330 
	C188.987991,32.073627 190.844635,35.505646 190.613968,38.791122 
	C190.410049,41.695946 187.880936,44.437531 186.441849,47.132381 
	C190.502472,47.819172 192.375397,44.445587 193.641190,40.758018 
	C195.722488,34.694698 192.916428,28.655001 187.970612,27.153742 
	C184.817902,22.418657 182.469620,25.707663 179.261810,27.933968 
	C174.515793,30.613070 174.417740,35.156914 175.122116,39.589020 
	C175.686050,43.137264 177.464279,46.279846 182.027512,47.322819 
	C177.114685,39.310410 176.837738,35.823814 181.044800,28.900372 
M122.215981,68.625183 
	C124.438156,72.902657 123.786903,78.882637 130.526459,80.675705 
	C127.967598,74.276878 125.408745,67.878052 122.526932,60.671631 
	C121.580063,62.209743 121.154556,62.714558 120.934494,63.296993 
	C120.469620,64.527359 120.112160,65.798302 119.038994,67.152763 
	C116.870041,72.153374 114.701080,77.153992 112.532120,82.154602 
	C113.256523,82.477455 113.980919,82.800308 114.705322,83.123161 
	C117.077141,78.096992 119.448959,73.070824 122.215981,68.625183 
M318.048157,61.098793 
	C315.386047,61.127419 312.723938,61.156040 309.221954,60.979713 
	C307.516388,61.128887 305.810822,61.278057 304.105255,61.427231 
	C304.137939,61.947590 304.170624,62.467953 304.203339,62.988312 
	C306.137756,62.988312 308.072205,62.988312 310.240967,63.901199 
	C310.260101,67.227509 310.197052,70.556931 310.323181,73.879173 
	C310.432892,76.767990 310.756439,79.648697 310.985474,82.532982 
	C311.653473,82.463348 312.321442,82.393715 312.989410,82.324074 
	C312.989410,75.948189 312.989410,69.572304 312.989410,63.034004 
	C315.285950,62.774128 317.059570,62.573429 319.398590,62.626122 
	C319.242645,62.148354 319.086670,61.670586 318.048157,61.098793 
M235.423569,62.622738 
	C235.257736,62.149338 235.091919,61.675938 234.021271,61.099106 
	C230.369934,61.132038 226.718597,61.164970 222.304184,60.989658 
	C221.623367,61.431465 220.942551,61.873276 220.261734,62.315083 
	C221.215958,62.404568 222.170197,62.494057 223.821442,62.617599 
	C224.645279,63.694538 226.111023,64.732040 226.180038,65.855354 
	C226.455200,70.333969 226.199783,74.842842 226.365494,79.332214 
	C226.405716,80.421692 227.302734,81.479538 227.805771,82.551933 
	C228.319504,82.383842 228.833252,82.215752 229.346985,82.047661 
	C229.346985,75.665627 229.346985,69.283600 229.346985,62.893608 
	C231.547012,62.710579 233.192535,62.573681 235.423569,62.622738 
M163.550919,47.128742 
	C170.238007,45.294254 172.942932,41.420002 172.091583,34.896004 
	C171.378876,29.434509 167.704956,26.808577 160.347656,27.003643 
	C159.853119,27.020096 159.358566,27.036549 158.017426,26.988192 
	C156.436768,26.988192 154.856110,26.988192 154.271011,26.988192 
	C154.271011,34.048603 154.271011,40.626408 154.271011,47.885357 
	C157.863861,47.360687 160.402176,46.990013 163.550919,47.128742 
M292.000244,68.509193 
	C286.114441,61.030880 286.114441,61.030880 282.752686,61.863903 
	C287.068146,67.933311 283.151520,75.413979 286.373047,81.763634 
	C286.373047,77.155197 286.373047,72.546768 286.373047,66.988808 
	C291.124359,72.626640 295.130310,77.380028 299.660675,82.755714 
	C299.660675,75.197136 299.660675,68.556122 299.660675,61.915104 
	C299.297424,61.907326 298.934143,61.899548 298.570892,61.891769 
	C298.570892,66.353157 298.570892,70.814552 298.570892,76.793701 
	C295.859863,73.380608 294.151794,71.230240 292.000244,68.509193 
M199.843231,63.498608 
	C200.304382,69.582504 200.765533,75.666397 201.226685,81.750298 
	C201.527817,81.754738 201.828934,81.759186 202.130066,81.763634 
	C202.130066,77.171562 202.130066,72.579491 202.130066,66.726074 
	C207.082840,72.580261 211.138748,77.374344 215.798782,82.882515 
	C215.798782,75.133858 215.798782,68.517319 215.798782,61.900776 
	C215.403702,61.881489 215.008606,61.862202 214.613525,61.842911 
	C214.613525,66.340057 214.613525,70.837204 214.613525,75.334343 
	C210.533432,71.717781 207.768646,67.814522 204.593445,64.279953 
	C203.290634,62.829685 201.102325,62.174881 199.316818,61.158234 
	C199.272202,61.769203 199.227585,62.380173 199.843231,63.498608 
M151.215500,61.140720 
	C151.055161,61.184200 150.887390,61.210682 150.736816,61.276505 
	C150.615143,61.329689 150.514221,61.430290 150.404083,61.509857 
	C154.356857,66.443565 152.131393,72.258759 152.708420,77.673904 
	C152.879395,79.278488 153.031128,80.885132 153.195633,82.530540 
	C154.225693,82.317429 154.507309,82.305099 154.515640,82.250854 
	C154.927902,79.562767 155.316742,76.871078 155.744873,73.927155 
	C156.678909,73.813438 157.635895,73.668617 158.598190,73.584518 
	C163.599640,73.147408 166.242447,70.972321 165.788651,67.242752 
	C165.251175,62.825195 162.181137,61.205971 158.066788,61.123703 
	C156.074081,61.083855 154.079941,61.116833 151.215500,61.140720 
M134.067413,62.858181 
	C134.618195,67.668587 135.170944,72.478775 135.718750,77.289513 
	C135.916824,79.028847 136.102982,80.769524 136.294586,82.509590 
	C136.814987,82.493881 137.335373,82.478165 137.855774,82.462456 
	C137.991501,81.115074 138.154190,79.769714 138.255600,78.419746 
	C138.363602,76.981819 138.413620,75.539543 138.498260,73.920860 
	C140.586899,73.706444 142.674637,74.033966 144.094513,73.210251 
	C145.900558,72.162521 147.953094,70.385216 148.427856,68.543175 
	C148.847397,66.915497 147.714462,64.343285 146.438721,62.942318 
	C144.151138,60.430199 137.047272,60.364277 134.067413,62.858181 
M253.949112,67.502693 
	C253.949112,68.118385 253.949112,68.734077 253.949112,69.711555 
	C254.967316,68.753899 255.659286,68.103073 256.598572,67.219627 
	C257.413086,82.668533 257.413086,82.668533 260.603912,82.913773 
	C260.367401,78.112045 260.208496,73.166862 259.843994,68.236893 
	C259.670654,65.891815 259.105621,63.575687 258.717987,61.246452 
	C257.209320,63.147617 255.700638,65.048782 253.949112,67.502693 
M247.326324,80.145058 
	C247.710770,80.788399 248.095215,81.431740 248.479660,82.075081 
	C249.019348,81.896866 249.559052,81.718643 250.098740,81.540428 
	C249.542084,75.244926 245.664169,69.915894 243.302963,64.177666 
	C242.822952,63.011112 241.102753,62.354881 239.954285,61.463390 
	C239.578491,61.824184 239.202682,62.184978 238.826889,62.545773 
	C241.549194,68.189484 244.271484,73.833199 247.326324,80.145058 
M194.097000,76.878326 
	C194.097000,71.675690 194.097000,66.473061 194.097000,61.270428 
	C193.625381,61.152000 193.153778,61.033577 192.682159,60.915150 
	C192.153381,61.692986 191.186279,62.459949 191.166687,63.250416 
	C191.035141,68.554520 190.995316,73.866776 191.147705,79.170013 
	C191.251724,82.789482 193.512894,82.816010 195.930679,82.080788 
	C195.257278,80.465248 194.684280,79.090599 194.097000,76.878326 
M204.934113,46.689171 
	C198.039551,41.502342 199.574661,34.849075 201.769135,27.838411 
	C200.304947,28.694469 199.240555,29.628780 198.479736,30.766161 
	C194.822220,36.234035 197.191483,47.695217 204.934113,46.689171 
M186.309692,76.453896 
	C188.415878,68.572105 186.208298,63.046009 182.280441,63.413593 
	C182.812469,66.820297 184.129486,70.386971 183.662048,73.702019 
	C183.239716,76.697029 180.866837,79.416985 179.398193,82.175438 
	C182.592255,82.919510 184.473465,80.280586 186.309692,76.453896 
M269.093292,73.474236 
	C269.093292,69.705132 269.093292,65.936035 269.093292,62.161606 
	C267.538361,62.161606 266.426117,62.161606 266.067566,62.161606 
	C266.067566,68.923080 266.067566,75.507561 266.067566,83.292366 
	C270.604095,80.414391 268.371429,77.001228 269.093292,73.474236 
M167.936432,69.883369 
	C167.892410,77.777351 169.920975,81.200546 175.194092,81.640015 
	C169.470657,76.044853 170.457764,69.740082 173.269623,63.225868 
	C172.760315,63.005024 172.250992,62.784184 171.741684,62.563343 
	C170.502853,64.722641 169.264023,66.881943 167.936432,69.883369 
M175.397827,60.760845 
	C175.990356,64.990143 178.015228,62.745968 179.664444,62.199512 
	C179.752625,61.741943 179.840790,61.284378 179.928970,60.826813 
	C178.613037,60.632862 177.297119,60.438915 175.397827,60.760845 
z"/>
<path fill="#C3D4D5" opacity="1.000000" stroke="none" 
	d="
M105.997643,1.915770 
	C106.328438,3.479210 106.931992,5.040324 106.945351,6.606471 
	C107.026283,16.097183 106.972496,25.589043 106.573395,35.616421 
	C104.788689,41.072327 103.323418,45.973679 102.022552,50.918278 
	C100.993767,54.828690 100.822510,59.112091 99.093582,62.655659 
	C96.626465,67.712173 93.083664,72.243851 89.699310,77.152878 
	C84.382690,82.501038 80.269783,88.874435 71.199173,87.353592 
	C68.351234,86.876099 65.066910,89.001244 61.516022,89.951195 
	C55.033936,89.974457 49.018162,89.981659 42.934196,89.632980 
	C41.888023,88.907616 40.879711,88.161057 39.937534,88.236824 
	C36.640312,88.501999 33.335293,89.548218 30.091665,89.348534 
	C27.004427,89.158470 23.990358,87.779869 20.317987,86.747879 
	C20.302898,86.663086 20.207209,85.696671 19.953733,84.773582 
	C18.699343,80.205429 15.214041,77.632980 11.339172,78.365860 
	C5.750342,79.422913 3.951269,78.052193 2.938300,72.368698 
	C2.724434,71.168762 1.668136,70.118973 1.000000,69.000000 
	C1.000000,61.312424 1.000000,53.624847 1.336024,45.520462 
	C2.712307,45.889126 3.998694,46.490414 4.748930,47.492928 
	C7.546227,51.230869 12.140570,54.974522 12.394343,58.950058 
	C12.778649,64.970482 15.197826,69.098465 18.723841,73.212585 
	C20.819536,75.657829 22.574970,78.654800 25.173420,80.339272 
	C28.036715,82.195442 31.690445,82.832291 35.053699,84.137558 
	C35.192398,84.323761 35.277248,84.372704 35.362099,84.421646 
	C35.241501,84.280998 35.120903,84.140343 35.049225,83.667542 
	C35.776768,82.873398 36.455383,82.411407 37.537544,81.955872 
	C41.412598,82.584381 44.884102,83.206444 48.648037,83.894409 
	C50.928802,83.960426 52.917141,83.960533 55.317257,83.987694 
	C56.827354,83.962585 57.925674,83.910416 59.427887,83.914597 
	C64.582314,82.357468 69.332855,80.744003 74.430222,79.071350 
	C77.875893,76.686501 80.974747,74.360847 84.381363,71.890541 
	C86.162399,69.581100 88.147591,67.597672 88.993309,65.210556 
	C90.387474,61.275398 91.044922,57.079235 92.121170,52.658756 
	C92.548317,51.215424 92.867203,50.106426 93.538635,48.948700 
	C97.301025,47.868660 97.426132,45.504242 97.391556,42.302101 
	C97.314186,35.137512 94.249008,27.519642 99.924812,20.954926 
	C100.484306,20.307798 100.596359,18.241703 100.130768,17.897985 
	C94.690895,13.882066 96.792946,7.041228 94.472137,2.058206 
	C98.620041,1.993254 102.308838,1.954512 105.997643,1.915770 
z"/>
<path fill="#C8D8DA" opacity="1.000000" stroke="none" 
	d="
M34.999847,84.000305 
	C31.690445,82.832291 28.036715,82.195442 25.173420,80.339272 
	C22.574970,78.654800 20.819536,75.657829 18.723841,73.212585 
	C15.197826,69.098465 12.778649,64.970482 12.394343,58.950058 
	C12.140570,54.974522 7.546227,51.230869 4.748930,47.492928 
	C3.998694,46.490414 2.712307,45.889126 1.336024,45.051826 
	C1.000000,30.979105 1.000000,16.958210 1.468655,2.467073 
	C17.287903,2.022789 32.638493,2.048748 47.939587,2.442195 
	C47.391323,3.429725 47.019131,4.308157 46.371933,4.625180 
	C43.535316,6.014676 40.598278,7.197262 37.736855,8.538504 
	C33.943352,10.316644 30.348850,12.897827 26.367670,13.789917 
	C22.439533,14.670121 19.738571,16.453049 18.995602,19.995180 
	C17.616732,26.568977 16.924782,33.286854 15.587603,40.005001 
	C14.280302,41.280502 12.868844,42.368992 12.493549,43.740925 
	C11.941232,45.759979 12.128053,47.981228 11.915768,51.521431 
	C12.478174,51.987671 14.146478,53.370701 15.903872,55.080650 
	C16.466192,56.520584 16.939425,57.633602 17.280746,58.945053 
	C17.383476,59.777550 17.618116,60.411617 17.924561,61.406372 
	C20.979412,65.889526 23.962461,70.011986 27.079721,74.447968 
	C30.520622,77.157455 33.827312,79.553436 37.134003,81.949409 
	C36.455383,82.411407 35.776768,82.873398 35.049072,83.667694 
	C35.000000,84.000000 34.999847,84.000305 34.999847,84.000305 
z"/>
<path fill="#BECFD1" opacity="1.000000" stroke="none" 
	d="
M1.000000,69.468658 
	C1.668136,70.118973 2.724434,71.168762 2.938300,72.368698 
	C3.951269,78.052193 5.750342,79.422913 11.339172,78.365860 
	C15.214041,77.632980 18.699343,80.205429 19.953733,84.773582 
	C20.207209,85.696671 20.302898,86.663086 20.317987,86.747879 
	C23.990358,87.779869 27.004427,89.158470 30.091665,89.348534 
	C33.335293,89.548218 36.640312,88.501999 39.937534,88.236824 
	C40.879711,88.161057 41.888023,88.907616 42.597313,89.673477 
	C41.519032,90.464294 40.709442,90.858727 39.899849,91.253166 
	C39.957226,91.498596 40.014603,91.744034 40.071976,91.989464 
	C50.373356,91.989464 60.674732,91.989464 71.314972,92.044830 
	C71.799355,93.544815 71.944862,94.989441 72.137367,96.900581 
	C73.326759,97.184593 75.143387,97.406990 76.784218,98.066673 
	C78.605431,98.798874 80.266212,99.930130 81.996841,100.887634 
	C55.310333,100.924400 28.623823,100.961166 1.468657,100.998970 
	C1.000000,90.645775 1.000000,80.291542 1.000000,69.468658 
z"/>
<path fill="#F9FFFF" opacity="1.000000" stroke="none" 
	d="
M47.989086,2.074706 
	C32.638493,2.048748 17.287903,2.022789 1.468655,1.998415 
	C2.326425,1.666667 3.652384,1.044387 4.979342,1.042250 
	C38.340389,0.988507 71.701546,1.000000 105.531342,1.000000 
	C106.000000,1.000000 105.999504,1.458633 105.998573,1.687201 
	C102.308838,1.954512 98.620041,1.993254 94.002838,2.024976 
	C82.718590,2.043138 72.362740,2.068320 61.542431,2.060917 
	C56.715008,2.043789 52.352047,2.059248 47.989086,2.074706 
z"/>
<path fill="#BCCED1" opacity="1.000000" stroke="none" 
	d="
M82.463051,100.925797 
	C80.266212,99.930130 78.605431,98.798874 76.784218,98.066673 
	C75.143387,97.406990 73.326759,97.184593 72.137367,96.900581 
	C71.944862,94.989441 71.799355,93.544815 71.234413,91.659164 
	C67.870766,90.790474 64.926544,90.362808 61.982327,89.935135 
	C65.066910,89.001244 68.351234,86.876099 71.199173,87.353592 
	C80.269783,88.874435 84.382690,82.501038 89.841507,77.478790 
	C91.403496,80.888344 92.658875,82.632683 95.300629,78.593201 
	C96.967484,76.044403 99.067749,73.779053 101.530441,70.687531 
	C102.776672,77.901413 104.058769,84.310112 104.939697,90.773499 
	C105.540642,95.182686 105.712753,99.738594 98.995415,99.344711 
	C98.695694,99.327133 98.335022,100.348885 98.002747,100.886536 
	C92.978249,100.912346 87.953758,100.938156 82.463051,100.925797 
z"/>
<path fill="#C0CFD1" opacity="1.000000" stroke="none" 
	d="
M98.456711,100.926384 
	C98.335022,100.348885 98.695694,99.327133 98.995415,99.344711 
	C105.712753,99.738594 105.540642,95.182686 104.939697,90.773499 
	C104.058769,84.310112 102.776672,77.901413 101.530441,70.687531 
	C99.067749,73.779053 96.967484,76.044403 95.300629,78.593201 
	C92.658875,82.632683 91.403496,80.888344 90.142487,77.325607 
	C93.083664,72.243851 96.626465,67.712173 99.093582,62.655659 
	C100.822510,59.112091 100.993767,54.828690 102.022552,50.918278 
	C103.323418,45.973679 104.788689,41.072327 106.538544,36.084969 
	C106.894035,57.392750 106.894035,78.767891 106.894035,100.966232 
	C104.049782,100.966232 101.480225,100.966232 98.456711,100.926384 
z"/>
<path fill="#F7F7F7" opacity="1.000000" stroke="none" 
	d="
M158.864029,27.052999 
	C159.358566,27.036549 159.853119,27.020096 160.774643,27.377087 
	C166.094437,28.401802 168.190750,31.687195 168.697769,36.133465 
	C169.222687,40.736649 166.544540,43.763817 162.698822,46.404354 
	C160.798553,45.753029 157.930344,44.940048 157.927139,44.115910 
	C157.904984,38.429573 158.480576,32.740913 158.864029,27.052999 
z"/>
<path fill="#121212" opacity="1.000000" stroke="none" 
	d="
M292.221985,68.794540 
	C294.151794,71.230240 295.859863,73.380608 298.570892,76.793701 
	C298.570892,70.814552 298.570892,66.353157 298.570892,61.891769 
	C298.934143,61.899548 299.297424,61.907326 299.660675,61.915104 
	C299.660675,68.556122 299.660675,75.197136 299.660675,82.755714 
	C295.130310,77.380028 291.124359,72.626640 286.373047,66.988808 
	C286.373047,72.546768 286.373047,77.155197 286.373047,81.763634 
	C283.151520,75.413979 287.068146,67.933311 282.752686,61.863903 
	C286.114441,61.030880 286.114441,61.030880 292.221985,68.794540 
z"/>
<path fill="#121212" opacity="1.000000" stroke="none" 
	d="
M199.513092,63.244873 
	C199.227585,62.380173 199.272202,61.769203 199.316818,61.158234 
	C201.102325,62.174881 203.290634,62.829685 204.593445,64.279953 
	C207.768646,67.814522 210.533432,71.717781 214.613525,75.334343 
	C214.613525,70.837204 214.613525,66.340057 214.613525,61.842911 
	C215.008606,61.862202 215.403702,61.881489 215.798782,61.900776 
	C215.798782,68.517319 215.798782,75.133858 215.798782,82.882515 
	C211.138748,77.374344 207.082840,72.580261 202.130066,66.726074 
	C202.130066,72.579491 202.130066,77.171562 202.130066,81.763634 
	C201.828934,81.759186 201.527817,81.754738 201.226685,81.750298 
	C200.765533,75.666397 200.304382,69.582504 199.513092,63.244873 
z"/>
<path fill="#1B1B1B" opacity="1.000000" stroke="none" 
	d="
M151.650970,61.128777 
	C154.079941,61.116833 156.074081,61.083855 158.066788,61.123703 
	C162.181137,61.205971 165.251175,62.825195 165.788651,67.242752 
	C166.242447,70.972321 163.599640,73.147408 158.598190,73.584518 
	C157.635895,73.668617 156.678909,73.813438 155.744873,73.927155 
	C155.316742,76.871078 154.927902,79.562767 154.515640,82.250854 
	C154.507309,82.305099 154.225693,82.317429 153.195633,82.530540 
	C153.031128,80.885132 152.879395,79.278488 152.708420,77.673904 
	C152.131393,72.258759 154.356857,66.443565 150.404083,61.509857 
	C150.514221,61.430290 150.615143,61.329689 150.736816,61.276505 
	C150.887390,61.210682 151.055161,61.184200 151.650970,61.128777 
M156.575882,72.101379 
	C157.555161,72.010284 159.084763,72.273788 159.413528,71.763535 
	C160.528656,70.032906 161.924774,67.980194 161.799011,66.147591 
	C161.727097,65.099579 158.914459,64.239632 157.335800,63.295010 
	C156.624603,64.843185 155.650009,66.333122 155.290512,67.959061 
	C155.030777,69.133812 155.588516,70.489304 156.575882,72.101379 
z"/>
<path fill="#1B1B1B" opacity="1.000000" stroke="none" 
	d="
M133.755463,62.564285 
	C137.047272,60.364277 144.151138,60.430199 146.438721,62.942318 
	C147.714462,64.343285 148.847397,66.915497 148.427856,68.543175 
	C147.953094,70.385216 145.900558,72.162521 144.094513,73.210251 
	C142.674637,74.033966 140.586899,73.706444 138.498260,73.920860 
	C138.413620,75.539543 138.363602,76.981819 138.255600,78.419746 
	C138.154190,79.769714 137.991501,81.115074 137.855774,82.462456 
	C137.335373,82.478165 136.814987,82.493881 136.294586,82.509590 
	C136.102982,80.769524 135.916824,79.028847 135.718750,77.289513 
	C135.170944,72.478775 134.618195,67.668587 133.755463,62.564285 
M138.194839,66.795639 
	C138.194839,68.414795 138.194839,70.033943 138.194839,71.670731 
	C141.825470,72.588829 144.661697,72.068459 145.080139,68.540108 
	C145.263565,66.993393 143.650528,64.603302 142.173691,63.659702 
	C140.557800,62.627243 138.114624,62.753368 138.194839,66.795639 
z"/>
<path fill="#232323" opacity="1.000000" stroke="none" 
	d="
M158.440735,27.020596 
	C158.480576,32.740913 157.904984,38.429573 157.927139,44.115910 
	C157.930344,44.940048 160.798553,45.753029 162.694214,46.507236 
	C163.047424,46.443302 162.940506,46.619347 162.940506,46.619347 
	C160.402176,46.990013 157.863861,47.360687 154.271011,47.885357 
	C154.271011,40.626408 154.271011,34.048603 154.271011,26.988192 
	C154.856110,26.988192 156.436768,26.988192 158.440735,27.020596 
z"/>
<path fill="#191919" opacity="1.000000" stroke="none" 
	d="
M254.070526,67.226318 
	C255.700638,65.048782 257.209320,63.147617 258.717987,61.246452 
	C259.105621,63.575687 259.670654,65.891815 259.843994,68.236893 
	C260.208496,73.166862 260.367401,78.112045 260.603912,82.913773 
	C257.413086,82.668533 257.413086,82.668533 256.598572,67.219627 
	C255.659286,68.103073 254.967316,68.753899 253.949112,69.711555 
	C253.949112,68.734077 253.949112,68.118385 254.070526,67.226318 
z"/>
<path fill="#191919" opacity="1.000000" stroke="none" 
	d="
M163.245712,46.874046 
	C162.940506,46.619347 163.047424,46.443302 163.052032,46.340420 
	C166.544540,43.763817 169.222687,40.736649 168.697769,36.133465 
	C168.190750,31.687195 166.094437,28.401802 161.145813,27.391586 
	C167.704956,26.808577 171.378876,29.434509 172.091583,34.896004 
	C172.942932,41.420002 170.238007,45.294254 163.245712,46.874046 
z"/>
<path fill="#262626" opacity="1.000000" stroke="none" 
	d="
M223.067261,61.197899 
	C226.718597,61.164970 230.369934,61.132038 234.422775,61.356186 
	C234.691574,61.890041 234.696167,62.164547 234.838058,62.436783 
	C233.192535,62.573681 231.547012,62.710579 229.346985,62.893608 
	C229.346985,69.283600 229.346985,75.665627 229.346985,82.047661 
	C228.833252,82.215752 228.319504,82.383842 227.805771,82.551933 
	C227.302734,81.479538 226.405716,80.421692 226.365494,79.332214 
	C226.199783,74.842842 226.455200,70.333969 226.180038,65.855354 
	C226.111023,64.732040 224.645279,63.694538 223.534805,62.371807 
	C223.195251,61.815205 223.134949,61.505833 223.067261,61.197899 
z"/>
<path fill="#262626" opacity="1.000000" stroke="none" 
	d="
M318.833160,62.372730 
	C317.059570,62.573429 315.285950,62.774128 312.989410,63.034004 
	C312.989410,69.572304 312.989410,75.948189 312.989410,82.324074 
	C312.321442,82.393715 311.653473,82.463348 310.985474,82.532982 
	C310.756439,79.648697 310.432892,76.767990 310.323181,73.879173 
	C310.197052,70.556931 310.260101,67.227509 310.152405,63.145035 
	C310.063202,61.987465 310.062531,61.586063 310.061829,61.184662 
	C312.723938,61.156040 315.386047,61.127419 318.448364,61.343086 
	C318.714996,61.846622 318.709869,62.108406 318.833160,62.372730 
z"/>
<path fill="#111111" opacity="1.000000" stroke="none" 
	d="
M247.160065,79.810982 
	C244.271484,73.833199 241.549194,68.189484 238.826889,62.545773 
	C239.202682,62.184978 239.578491,61.824184 239.954285,61.463390 
	C241.102753,62.354881 242.822952,63.011112 243.302963,64.177666 
	C245.664169,69.915894 249.542084,75.244926 250.098740,81.540428 
	C249.559052,81.718643 249.019348,81.896866 248.479660,82.075081 
	C248.095215,81.431740 247.710770,80.788399 247.160065,79.810982 
z"/>
<path fill="#1C1C1C" opacity="1.000000" stroke="none" 
	d="
M247.003754,26.781477 
	C252.703339,27.777929 253.572479,32.473423 253.726959,36.798836 
	C253.894928,41.502468 252.255417,45.840206 246.852600,47.226582 
	C247.026917,46.643578 247.020004,45.823723 247.377640,44.896164 
	C251.860184,39.021286 251.188950,32.183556 246.249802,26.953646 
	C246.670441,26.866245 246.837097,26.823862 247.003754,26.781477 
z"/>
<path fill="#131313" opacity="1.000000" stroke="none" 
	d="
M119.710632,67.052597 
	C120.112160,65.798302 120.469620,64.527359 120.934494,63.296993 
	C121.154556,62.714558 121.580063,62.209743 122.526932,60.671631 
	C125.408745,67.878052 127.967598,74.276878 130.526459,80.675705 
	C123.786903,78.882637 124.438156,72.902657 121.965652,67.996597 
	C121.047096,67.262878 120.378868,67.157738 119.710632,67.052597 
z"/>
<path fill="#202020" opacity="1.000000" stroke="none" 
	d="
M239.979736,46.990524 
	C232.201263,41.754311 232.347717,30.876017 240.628082,27.300282 
	C240.833023,28.055599 240.659698,28.442200 240.197876,29.045200 
	C239.281052,32.872566 238.285309,36.470680 238.158371,40.099186 
	C238.078674,42.376987 239.303513,44.700432 239.955597,46.999218 
	C239.968109,46.995037 239.979736,46.990524 239.979736,46.990524 
z"/>
<path fill="#191919" opacity="1.000000" stroke="none" 
	d="
M194.104156,77.297134 
	C194.684280,79.090599 195.257278,80.465248 195.930679,82.080788 
	C193.512894,82.816010 191.251724,82.789482 191.147705,79.170013 
	C190.995316,73.866776 191.035141,68.554520 191.166687,63.250416 
	C191.186279,62.459949 192.153381,61.692986 192.682159,60.915150 
	C193.153778,61.033577 193.625381,61.152000 194.097000,61.270428 
	C194.097000,66.473061 194.097000,71.675690 194.104156,77.297134 
z"/>
<path fill="#ECECEC" opacity="1.000000" stroke="none" 
	d="
M257.946716,35.488976 
	C257.901520,34.382885 257.856323,33.276794 258.275635,32.126007 
	C260.461243,29.859364 261.584381,26.723276 265.563782,28.923889 
	C268.517181,30.557119 268.444214,32.447277 266.593872,35.040710 
	C264.483276,35.519390 262.728699,35.845715 260.575989,35.927002 
	C259.434174,35.617638 258.690430,35.553307 257.946716,35.488976 
z"/>
<path fill="#131313" opacity="1.000000" stroke="none" 
	d="
M204.947144,47.064121 
	C197.191483,47.695217 194.822220,36.234035 198.479736,30.766161 
	C199.240555,29.628780 200.304947,28.694469 201.769135,27.838411 
	C199.574661,34.849075 198.039551,41.502342 204.947144,47.064121 
z"/>
<path fill="#161616" opacity="1.000000" stroke="none" 
	d="
M227.045090,28.064951 
	C226.721054,34.420292 226.402679,40.775978 226.012985,47.127289 
	C226.007736,47.212967 225.100937,47.243328 223.883041,47.384102 
	C223.883041,41.215580 223.883041,35.164894 223.927017,28.329662 
	C224.008499,27.098743 224.046005,26.652370 224.083511,26.205997 
	C224.792740,26.177345 225.501968,26.148691 226.564117,26.471565 
	C226.959732,27.237047 227.002411,27.650999 227.045090,28.064951 
z"/>
<path fill="#101010" opacity="1.000000" stroke="none" 
	d="
M187.970627,27.930128 
	C192.916428,28.655001 195.722488,34.694698 193.641190,40.758018 
	C192.375397,44.445587 190.502472,47.819172 186.441849,47.132381 
	C187.880936,44.437531 190.410049,41.695946 190.613968,38.791122 
	C190.844635,35.505646 188.987991,32.073627 188.009781,28.352657 
	C187.980576,27.999985 187.970627,27.930128 187.970627,27.930128 
z"/>
<path fill="#101010" opacity="1.000000" stroke="none" 
	d="
M186.213013,76.849609 
	C184.473465,80.280586 182.592255,82.919510 179.398193,82.175438 
	C180.866837,79.416985 183.239716,76.697029 183.662048,73.702019 
	C184.129486,70.386971 182.812469,66.820297 182.280441,63.413593 
	C186.208298,63.046009 188.415878,68.572105 186.213013,76.849609 
z"/>
<path fill="#121212" opacity="1.000000" stroke="none" 
	d="
M269.085907,73.962440 
	C268.371429,77.001228 270.604095,80.414391 266.067566,83.292366 
	C266.067566,75.507561 266.067566,68.923080 266.067566,62.161606 
	C266.426117,62.161606 267.538361,62.161606 269.093292,62.161606 
	C269.093292,65.936035 269.093292,69.705132 269.085907,73.962440 
z"/>
<path fill="#141414" opacity="1.000000" stroke="none" 
	d="
M180.297501,29.011787 
	C176.837738,35.823814 177.114685,39.310410 182.027512,47.322819 
	C177.464279,46.279846 175.686050,43.137264 175.122116,39.589020 
	C174.417740,35.156914 174.515793,30.613070 179.688904,28.213150 
	C180.176483,28.665483 180.237000,28.838636 180.297501,29.011787 
z"/>
<path fill="#111111" opacity="1.000000" stroke="none" 
	d="
M167.980820,69.462311 
	C169.264023,66.881943 170.502853,64.722641 171.741684,62.563343 
	C172.250992,62.784184 172.760315,63.005024 173.269623,63.225868 
	C170.457764,69.740082 169.470657,76.044853 175.194092,81.640015 
	C169.920975,81.200546 167.892410,77.777351 167.980820,69.462311 
z"/>
<path fill="#1E1E1E" opacity="1.000000" stroke="none" 
	d="
M260.974091,36.172039 
	C262.728699,35.845715 264.483276,35.519390 266.620300,35.419319 
	C267.017548,36.151276 267.032410,36.656971 267.047272,37.162670 
	C268.734558,40.509186 270.421844,43.855701 272.109131,47.202217 
	C271.998871,47.478767 271.888641,47.755314 271.778412,48.031864 
	C270.016266,46.544727 268.125183,45.182816 266.526733,43.536736 
	C264.781525,41.739548 263.307251,39.679253 261.310791,37.561989 
	C260.929169,36.984234 260.951630,36.578136 260.974091,36.172039 
z"/>
<path fill="#E9E9E9" opacity="1.000000" stroke="none" 
	d="
M119.374817,67.102676 
	C120.378868,67.157738 121.047096,67.262878 121.768051,67.706337 
	C119.448959,73.070824 117.077141,78.096992 114.705322,83.123161 
	C113.980919,82.800308 113.256523,82.477455 112.532120,82.154602 
	C114.701080,77.153992 116.870041,72.153374 119.374817,67.102676 
z"/>
<path fill="#010101" opacity="1.000000" stroke="none" 
	d="
M267.400208,37.071381 
	C267.032410,36.656971 267.017548,36.151276 266.976288,35.266968 
	C268.444214,32.447277 268.517181,30.557119 265.563782,28.923889 
	C261.584381,26.723276 260.461243,29.859364 258.340668,31.799053 
	C257.570557,30.072643 257.199921,28.628483 256.780243,26.993082 
	C258.913940,26.993082 261.590118,26.537960 264.016602,27.121426 
	C266.430328,27.701830 269.473602,28.817644 270.546051,30.676487 
	C271.223083,31.849953 268.790771,34.817356 267.400208,37.071381 
z"/>
<path fill="#010101" opacity="1.000000" stroke="none" 
	d="
M260.575989,35.927002 
	C260.951630,36.578136 260.929169,36.984234 260.952087,37.692093 
	C260.983917,40.036907 260.970428,42.079960 260.548462,44.556355 
	C259.480316,44.988926 258.820587,44.988152 258.160889,44.987381 
	C258.105103,42.142262 258.049316,39.297142 257.970093,35.970497 
	C258.690430,35.553307 259.434174,35.617638 260.575989,35.927002 
z"/>
<path fill="#F4F4F4" opacity="1.000000" stroke="none" 
	d="
M180.671143,28.956079 
	C180.237000,28.838636 180.176483,28.665483 180.066254,28.221737 
	C182.469620,25.707663 184.817902,22.418657 187.970612,27.541935 
	C187.970627,27.930128 187.980576,27.999985 187.949432,27.983421 
	C185.627121,28.278028 183.335953,28.589201 180.671143,28.956079 
z"/>
<path fill="#F9F9F9" opacity="1.000000" stroke="none" 
	d="
M240.486359,28.828800 
	C240.659698,28.442200 240.833023,28.055599 240.997681,27.351250 
	C242.416428,23.573298 244.602127,24.741348 246.909668,26.430195 
	C246.837097,26.823862 246.670441,26.866245 245.869171,26.967129 
	C243.651840,27.626686 242.069092,28.227743 240.486359,28.828800 
z"/>
<path fill="#F3F3F3" opacity="1.000000" stroke="none" 
	d="
M175.689514,60.502907 
	C177.297119,60.438915 178.613037,60.632862 179.928970,60.826813 
	C179.840790,61.284378 179.752625,61.741943 179.664444,62.199512 
	C178.015228,62.745968 175.990356,64.990143 175.689514,60.502907 
z"/>
<path fill="#5C5C5C" opacity="1.000000" stroke="none" 
	d="
M227.452911,27.986809 
	C227.002411,27.650999 226.959732,27.237047 226.917145,26.510677 
	C229.042099,26.198259 231.166962,26.198259 233.291840,26.198259 
	C233.344696,26.551237 233.397552,26.904215 233.450394,27.257191 
	C231.587173,27.474350 229.723953,27.691507 227.452911,27.986809 
z"/>
<path fill="#5C5C5C" opacity="1.000000" stroke="none" 
	d="
M223.664200,26.091284 
	C224.046005,26.652370 224.008499,27.098743 223.904755,27.874586 
	C222.132294,28.251348 220.426071,28.298641 218.349365,28.157036 
	C217.978912,27.968140 218.016968,27.989275 218.016968,27.989275 
	C218.455276,23.930431 221.540298,26.746313 223.664200,26.091284 
z"/>
<path fill="#F9F9F9" opacity="1.000000" stroke="none" 
	d="
M247.013107,45.003864 
	C247.020004,45.823723 247.026917,46.643578 246.687134,47.497566 
	C244.902832,47.719814 243.465210,47.907925 241.717499,47.770046 
	C241.407425,47.444054 241.347305,47.328598 241.746933,47.236618 
	C243.768738,46.431046 245.390915,45.717453 247.013107,45.003864 
z"/>
<path fill="#5D5D5D" opacity="1.000000" stroke="none" 
	d="
M309.641907,61.082188 
	C310.062531,61.586063 310.063202,61.987465 310.035248,62.688591 
	C308.072205,62.988312 306.137756,62.988312 304.203339,62.988312 
	C304.170624,62.467953 304.137939,61.947590 304.105255,61.427231 
	C305.810822,61.278057 307.516388,61.128887 309.641907,61.082188 
z"/>
<path fill="#5D5D5D" opacity="1.000000" stroke="none" 
	d="
M222.685730,61.093781 
	C223.134949,61.505833 223.195251,61.815205 223.186295,62.354782 
	C222.170197,62.494057 221.215958,62.404568 220.261734,62.315083 
	C220.942551,61.873276 221.623367,61.431465 222.685730,61.093781 
z"/>
<path fill="#5C5C5C" opacity="1.000000" stroke="none" 
	d="
M217.966156,27.949678 
	C217.754333,28.684202 217.555267,29.437187 217.356186,30.190172 
	C217.141724,30.088898 216.927246,29.987625 216.712784,29.886351 
	C217.027496,29.393833 217.342209,28.901316 217.836945,28.199036 
	C218.016968,27.989275 217.978912,27.968140 217.966156,27.949678 
z"/>
<path fill="#111111" opacity="1.000000" stroke="none" 
	d="
M258.076721,45.388474 
	C258.820587,44.988152 259.480316,44.988926 260.469788,44.986938 
	C260.493896,45.731987 260.188232,46.479790 259.882538,47.227592 
	C259.252533,46.748249 258.622528,46.268906 258.076721,45.388474 
z"/>
<path fill="#202020" opacity="1.000000" stroke="none" 
	d="
M241.347305,47.328598 
	C241.347305,47.328598 241.407425,47.444054 241.469666,47.427090 
	C241.153793,47.230995 240.775681,47.051865 240.188644,46.931629 
	C239.979736,46.990524 239.968109,46.995037 240.084015,47.304222 
	C240.582367,47.518471 240.964844,47.423534 241.347305,47.328598 
z"/>
<path fill="#5D5D5D" opacity="1.000000" stroke="none" 
	d="
M319.115875,62.499428 
	C318.709869,62.108406 318.714996,61.846622 318.889648,61.390099 
	C319.086670,61.670586 319.242645,62.148354 319.115875,62.499428 
z"/>
<path fill="#5D5D5D" opacity="1.000000" stroke="none" 
	d="
M235.130814,62.529758 
	C234.696167,62.164547 234.691574,61.890041 234.875183,61.407898 
	C235.091919,61.675938 235.257736,62.149338 235.130814,62.529758 
z"/>
<path fill="#C8D8D8" opacity="1.000000" stroke="none" 
	d="
M62.006893,2.093503 
	C72.362740,2.068320 82.718590,2.043138 93.543739,2.051186 
	C96.792946,7.041228 94.690895,13.882066 100.130768,17.897985 
	C100.596359,18.241703 100.484306,20.307798 99.924812,20.954926 
	C94.249008,27.519642 97.314186,35.137512 97.391556,42.302101 
	C97.426132,45.504242 97.301025,47.868660 93.462067,48.532799 
	C92.618279,45.740681 92.203598,43.315731 91.837753,40.613258 
	C91.586372,39.918098 91.286156,39.500465 90.988113,39.046768 
	C90.990280,39.010704 90.918068,39.013134 90.917999,38.627213 
	C90.920982,34.943214 89.157143,33.647999 86.096588,33.663132 
	C86.451042,32.959484 86.723488,32.508331 87.000320,31.623291 
	C87.024071,29.697632 86.928017,28.193800 87.082436,26.716139 
	C87.821198,19.646780 86.363846,18.054890 79.010544,17.726641 
	C78.314735,8.752572 75.642708,6.188508 66.840042,6.034292 
	C64.041893,5.985271 61.774391,5.677098 62.006893,2.093503 
z"/>
<path fill="#54B98D" opacity="1.000000" stroke="none" 
	d="
M92.012901,52.993088 
	C91.044922,57.079235 90.387474,61.275398 88.993309,65.210556 
	C88.147591,67.597672 86.162399,69.581100 84.114319,71.720985 
	C82.690750,70.797127 81.841988,69.898170 81.196861,68.691833 
	C81.955452,67.442154 82.814049,66.559105 83.011505,65.547050 
	C83.764473,61.687756 84.304298,57.786877 85.256180,53.891689 
	C86.091187,53.252182 86.593765,52.622520 87.454819,52.038857 
	C89.213165,52.387604 90.613029,52.690346 92.012901,52.993088 
z"/>
<path fill="#0C171B" opacity="1.000000" stroke="none" 
	d="
M37.537544,81.955872 
	C33.827312,79.553436 30.520622,77.157455 27.132339,74.113434 
	C29.008753,72.993324 30.966757,72.521271 32.971115,72.394897 
	C34.025299,75.714279 35.957012,75.057281 38.016937,74.288788 
	C40.186092,76.572472 42.084667,79.178307 45.685734,77.447266 
	C45.844631,77.370888 46.559467,78.451042 46.714165,79.032509 
	C47.060520,80.657860 47.708065,82.243179 48.355610,83.828499 
	C44.884102,83.206444 41.412598,82.584381 37.537544,81.955872 
z"/>
<path fill="#45B088" opacity="1.000000" stroke="none" 
	d="
M92.121170,52.658756 
	C90.613029,52.690346 89.213165,52.387604 87.405899,51.622520 
	C86.683205,47.109341 86.367912,43.058502 86.459198,39.002075 
	C88.216537,39.002037 89.567307,39.007587 90.918068,39.013134 
	C90.918068,39.013134 90.990280,39.010704 91.011063,39.306496 
	C91.284210,40.031784 91.536568,40.461285 91.788925,40.890785 
	C92.203598,43.315731 92.618279,45.740681 93.109528,48.581528 
	C92.867203,50.106426 92.548317,51.215424 92.121170,52.658756 
z"/>
<path fill="#4EBC8C" opacity="1.000000" stroke="none" 
	d="
M74.083397,79.130547 
	C69.332855,80.744003 64.582314,82.357468 59.421757,83.530090 
	C60.008038,80.408447 61.004337,77.727646 62.377831,75.003464 
	C63.513401,74.964188 64.271782,74.968277 64.842789,75.240234 
	C64.098190,76.282959 63.540955,77.057823 62.983723,77.832680 
	C63.458435,78.154022 63.933144,78.475372 64.407860,78.796715 
	C65.256760,77.516998 66.105667,76.237282 66.961533,74.960022 
	C66.968483,74.962471 66.971779,74.949890 67.318771,75.018448 
	C69.804977,76.434845 71.944183,77.782700 74.083397,79.130547 
z"/>
<path fill="#A0BABD" opacity="1.000000" stroke="none" 
	d="
M61.516022,89.951195 
	C64.926544,90.362808 67.870766,90.790474 70.895554,91.603806 
	C60.674732,91.989464 50.373356,91.989464 40.071976,91.989464 
	C40.014603,91.744034 39.957226,91.498596 39.899849,91.253166 
	C40.709442,90.858727 41.519032,90.464294 42.665504,90.029358 
	C49.018162,89.981659 55.033936,89.974457 61.516022,89.951195 
z"/>
<path fill="#5BC893" opacity="1.000000" stroke="none" 
	d="
M62.000637,75.046837 
	C61.004337,77.727646 60.008038,80.408447 59.017868,83.473755 
	C57.925674,83.910416 56.827354,83.962585 55.346115,83.653168 
	C54.360878,81.499405 53.758556,79.707230 53.227142,77.613434 
	C53.471912,76.551155 53.645782,75.790482 53.940102,74.760956 
	C54.420643,74.030373 54.780731,73.568642 55.470631,73.045700 
	C57.867172,73.671936 59.933903,74.359390 62.000637,75.046837 
z"/>
<path fill="#4CAF84" opacity="1.000000" stroke="none" 
	d="
M74.430222,79.071350 
	C71.944183,77.782700 69.804977,76.434845 67.582870,74.742104 
	C70.268967,74.397209 73.037949,74.397209 76.210892,74.397209 
	C77.498314,72.944054 79.245773,70.971634 80.993233,68.999214 
	C81.841988,69.898170 82.690750,70.797127 83.806549,71.865639 
	C80.974747,74.360847 77.875893,76.686501 74.430222,79.071350 
z"/>
<path fill="#081813" opacity="1.000000" stroke="none" 
	d="
M53.156235,77.915054 
	C53.758556,79.707230 54.360878,81.499405 54.934338,83.626114 
	C52.917141,83.960533 50.928802,83.960426 48.648037,83.894409 
	C47.708065,82.243179 47.060520,80.657860 47.105343,79.022278 
	C49.583881,78.619698 51.370056,78.267372 53.156235,77.915054 
z"/>
<path fill="#C8D8DA" opacity="1.000000" stroke="none" 
	d="
M35.000153,83.999847 
	C35.120903,84.140343 35.241501,84.280998 35.362099,84.421646 
	C35.277248,84.372704 35.192398,84.323761 35.053699,84.137558 
	C34.999847,84.000305 35.000000,84.000000 35.000153,83.999847 
z"/>
<path fill="#C9DEDF" opacity="1.000000" stroke="none" 
	d="
M61.542431,2.060917 
	C61.774391,5.677098 64.041893,5.985271 66.840042,6.034292 
	C75.642708,6.188508 78.314735,8.752572 79.023026,17.952213 
	C79.042366,18.506426 79.079544,18.957920 78.685242,18.971630 
	C77.503113,19.001621 76.715286,19.017902 75.595627,18.900513 
	C71.133087,17.225401 67.080208,15.395281 62.841999,14.252455 
	C60.360279,13.583263 57.583038,14.010012 54.631897,13.952360 
	C53.555061,13.722070 52.785061,13.483171 51.616722,13.171865 
	C49.281544,13.424120 47.259144,13.495356 45.422119,14.115618 
	C35.405731,17.497601 25.443066,21.025646 20.884636,32.374069 
	C19.146963,35.120617 17.598234,37.578098 16.023302,40.013470 
	C15.997096,39.991360 15.946809,39.944740 15.946808,39.944740 
	C16.924782,33.286854 17.616732,26.568977 18.995602,19.995180 
	C19.738571,16.453049 22.439533,14.670121 26.367670,13.789917 
	C30.348850,12.897827 33.943352,10.316644 37.736855,8.538504 
	C40.598278,7.197262 43.535316,6.014676 46.371933,4.625180 
	C47.019131,4.308157 47.391323,3.429725 47.939587,2.442195 
	C52.352047,2.059248 56.715008,2.043789 61.542431,2.060917 
z"/>
<path fill="#111C22" opacity="1.000000" stroke="none" 
	d="
M32.924759,72.049210 
	C30.966757,72.521271 29.008753,72.993324 26.998131,73.799911 
	C23.962461,70.011986 20.979412,65.889526 18.298820,61.388275 
	C19.944860,60.145329 21.288443,59.281170 22.896156,58.247131 
	C24.131475,61.452335 25.281935,64.437355 26.353174,67.216827 
	C28.529316,67.117729 30.327347,67.035851 32.398537,67.033737 
	C33.131245,67.696198 33.590797,68.278893 34.033520,69.219269 
	C33.652714,70.401024 33.288734,71.225121 32.924759,72.049210 
z"/>
<path fill="#10232A" opacity="1.000000" stroke="none" 
	d="
M32.125378,66.953972 
	C30.327347,67.035851 28.529316,67.117729 26.353174,67.216827 
	C25.281935,64.437355 24.131475,61.452335 22.896156,58.247131 
	C21.288443,59.281170 19.944860,60.145329 18.227016,61.027584 
	C17.618116,60.411617 17.383476,59.777550 17.468246,58.548729 
	C19.854424,55.693390 21.921188,53.432812 24.232735,51.113197 
	C24.645329,51.053097 24.813141,51.052036 24.983776,51.456604 
	C25.508778,54.210243 25.772211,56.664257 26.670900,58.858028 
	C27.072762,59.839008 28.749666,60.297657 29.919983,61.352814 
	C30.640940,63.148392 31.289843,64.584503 31.975443,66.255943 
	C32.012138,66.491272 32.125378,66.953972 32.125378,66.953972 
z"/>
<path fill="#C9DEDF" opacity="1.000000" stroke="none" 
	d="
M15.814781,54.753735 
	C14.146478,53.370701 12.478174,51.987671 11.915768,51.521431 
	C12.128053,47.981228 11.941232,45.759979 12.493549,43.740925 
	C12.868844,42.368992 14.280302,41.280502 15.587603,40.005001 
	C15.946809,39.944740 15.997096,39.991360 15.997822,40.431305 
	C16.014948,42.269108 16.031351,43.666962 15.851465,45.373726 
	C15.780897,47.452785 15.906616,49.222942 16.015427,51.309616 
	C15.937271,52.668671 15.876026,53.711201 15.814781,54.753735 
z"/>
<path fill="#111C22" opacity="1.000000" stroke="none" 
	d="
M15.903872,55.080650 
	C15.876026,53.711201 15.937271,52.668671 16.457445,51.308521 
	C19.273567,51.051346 21.630760,51.111790 23.987953,51.172230 
	C21.921188,53.432812 19.854424,55.693390 17.600155,58.350296 
	C16.939425,57.633602 16.466192,56.520584 15.903872,55.080650 
z"/>
<path fill="#E8E8E8" opacity="1.000000" stroke="none" 
	d="
M156.178772,71.932785 
	C155.588516,70.489304 155.030777,69.133812 155.290512,67.959061 
	C155.650009,66.333122 156.624603,64.843185 157.335815,63.295013 
	C158.914459,64.239632 161.727097,65.099579 161.799011,66.147591 
	C161.924774,67.980194 160.528656,70.032906 159.413528,71.763535 
	C159.084763,72.273788 157.555161,72.010284 156.178772,71.932785 
z"/>
<path fill="#E8E8E8" opacity="1.000000" stroke="none" 
	d="
M138.191971,66.377777 
	C138.114624,62.753368 140.557800,62.627243 142.173691,63.659702 
	C143.650528,64.603302 145.263565,66.993393 145.080139,68.540108 
	C144.661697,72.068459 141.825470,72.588829 138.194839,71.670731 
	C138.194839,70.033943 138.194839,68.414795 138.191971,66.377777 
z"/>
<path fill="#FCFCFC" opacity="1.000000" stroke="none" 
	d="
M241.746933,47.236618 
	C240.964844,47.423534 240.582367,47.518471 240.071503,47.308403 
	C239.303513,44.700432 238.078674,42.376987 238.158371,40.099186 
	C238.285309,36.470680 239.281052,32.872566 240.197876,29.045197 
	C242.069092,28.227743 243.651840,27.626686 245.615204,27.012146 
	C251.188950,32.183556 251.860184,39.021286 247.377640,44.896164 
	C245.390915,45.717453 243.768738,46.431046 241.746933,47.236618 
z"/>
<path fill="#57CB96" opacity="1.000000" stroke="none" 
	d="
M54.938740,13.943752 
	C57.583038,14.010012 60.360279,13.583263 62.841999,14.252455 
	C67.080208,15.395281 71.133087,17.225401 75.818527,19.160288 
	C79.189278,21.717560 82.005302,23.881382 84.862747,26.395117 
	C85.601418,28.515745 86.298676,30.286463 86.995934,32.057178 
	C86.723488,32.508331 86.451042,32.959484 86.063385,33.885529 
	C85.948166,34.360428 85.888115,34.805748 85.582184,34.833263 
	C84.865311,34.862545 84.454376,34.864307 83.973892,34.540680 
	C82.956596,33.797848 82.008850,33.380409 80.865112,32.924469 
	C80.669113,32.885960 80.269966,32.902378 80.103012,32.593292 
	C77.326683,30.501511 74.717308,28.718813 72.027168,26.587803 
	C71.379250,25.228199 70.812080,24.216911 70.244919,23.205624 
	C69.529999,24.136608 68.815071,25.067593 67.776108,25.954079 
	C67.266045,25.227627 67.103401,24.538229 66.889389,23.865171 
	C66.336548,22.126560 66.231430,19.560778 65.059662,18.900171 
	C63.932240,18.264570 61.692116,19.602665 59.576447,20.042561 
	C57.839546,20.400290 56.467087,20.789011 55.058975,20.726566 
	C54.995129,18.164848 54.966934,16.054300 54.938740,13.943752 
z"/>
<path fill="#F0FBFB" opacity="1.000000" stroke="none" 
	d="
M87.000320,31.623291 
	C86.298676,30.286463 85.601418,28.515745 85.157669,26.198597 
	C86.080597,20.791374 83.061691,19.419117 79.079544,18.957920 
	C79.079544,18.957920 79.042366,18.506426 79.029877,18.280853 
	C86.363846,18.054890 87.821198,19.646780 87.082436,26.716139 
	C86.928017,28.193800 87.024071,29.697632 87.000320,31.623291 
z"/>
<path fill="#4E9D7E" opacity="1.000000" stroke="none" 
	d="
M85.888115,34.805748 
	C85.888115,34.805748 85.948166,34.360428 85.981369,34.138031 
	C89.157143,33.647999 90.920982,34.943214 90.917999,38.627213 
	C89.567307,39.007587 88.216537,39.002037 86.577042,38.685360 
	C86.154907,37.184734 86.021507,35.995243 85.888115,34.805748 
z"/>
<path fill="#4E9D7E" opacity="1.000000" stroke="none" 
	d="
M91.837753,40.613258 
	C91.536568,40.461285 91.284210,40.031784 91.008896,39.342560 
	C91.286156,39.500465 91.586372,39.918098 91.837753,40.613258 
z"/>
<path fill="#368363" opacity="1.000000" stroke="none" 
	d="
M81.196861,68.691833 
	C79.245773,70.971634 77.498314,72.944054 76.210892,74.397209 
	C73.037949,74.397209 70.268967,74.397209 67.235886,74.673553 
	C66.971779,74.949890 66.968483,74.962471 66.641022,74.959518 
	C65.885757,74.961838 65.457954,74.967102 65.030159,74.972366 
	C64.271782,74.968277 63.513401,74.964188 62.377831,75.003464 
	C59.933903,74.359390 57.867172,73.671936 55.359692,72.809631 
	C54.658867,72.417297 54.398785,72.199814 54.097496,71.588165 
	C55.568977,70.524857 57.026203,69.545517 58.607971,69.262688 
	C60.734402,68.882462 62.956959,69.039841 65.567711,68.952927 
	C75.830894,68.979019 78.447701,66.648277 80.037743,56.752743 
	C80.251457,55.422707 81.222534,54.214367 82.185501,52.963753 
	C83.326645,53.285736 84.125191,53.593632 84.923752,53.901531 
	C84.304298,57.786877 83.764473,61.687756 83.011505,65.547050 
	C82.814049,66.559105 81.955452,67.442154 81.196861,68.691833 
z"/>
<path fill="#3D7F6A" opacity="1.000000" stroke="none" 
	d="
M85.256180,53.891689 
	C84.125191,53.593632 83.326645,53.285736 82.132462,52.620483 
	C81.422134,51.182285 81.107437,50.101444 80.855080,48.664494 
	C80.892014,47.586124 80.866608,46.863865 81.174294,45.981674 
	C82.254341,43.496487 83.001289,41.171230 83.981987,38.118328 
	C82.055954,38.640160 81.175056,38.878826 80.160736,38.755684 
	C80.002296,37.623035 79.977287,36.852200 79.980804,35.681194 
	C80.096199,34.488144 80.183083,33.695259 80.269966,32.902378 
	C80.269966,32.902378 80.669113,32.885960 80.876221,33.256245 
	C82.070038,34.039711 83.056740,34.452892 84.043442,34.866074 
	C84.454376,34.864307 84.865311,34.862545 85.582184,34.833263 
	C86.021507,35.995243 86.154907,37.184734 86.170456,38.690945 
	C86.367912,43.058502 86.683205,47.109341 87.047417,51.576519 
	C86.593765,52.622520 86.091187,53.252182 85.256180,53.891689 
z"/>
<path fill="#142A34" opacity="1.000000" stroke="none" 
	d="
M53.227142,77.613434 
	C51.370056,78.267372 49.583881,78.619698 47.406525,78.982254 
	C46.559467,78.451042 45.844631,77.370888 45.685734,77.447266 
	C42.084667,79.178307 40.186092,76.572472 38.271294,74.183144 
	C38.979214,73.529640 39.460575,73.264893 40.186592,72.902832 
	C40.649658,72.535583 40.868076,72.265663 41.297009,71.988495 
	C41.507523,71.981255 41.928707,71.972466 42.006378,72.324936 
	C45.349586,76.685913 50.026291,73.654465 53.819649,75.029816 
	C53.645782,75.790482 53.471912,76.551155 53.227142,77.613434 
z"/>
<path fill="#10232A" opacity="1.000000" stroke="none" 
	d="
M41.928707,71.972466 
	C41.928707,71.972466 41.507523,71.981255 41.042641,72.072800 
	C40.365822,72.442940 40.153881,72.721542 39.941940,73.000145 
	C39.460575,73.264893 38.979214,73.529640 38.243492,73.900040 
	C35.957012,75.057281 34.025299,75.714279 32.971115,72.394897 
	C33.288734,71.225121 33.652714,70.401024 34.275352,69.284698 
	C34.691986,69.046684 34.849953,69.100914 35.013142,69.486153 
	C35.378651,70.391251 35.738937,70.965347 36.099228,71.539436 
	C36.397034,70.744186 36.694836,69.948936 37.342060,68.994446 
	C39.129955,68.611908 40.568428,68.388626 42.005257,68.515717 
	C42.001804,69.565834 42.000000,70.265572 41.983688,71.217300 
	C41.955688,71.637009 41.942200,71.804733 41.928707,71.972466 
z"/>
<path fill="#4CAF84" opacity="1.000000" stroke="none" 
	d="
M64.842789,75.240234 
	C65.457954,74.967102 65.885757,74.961838 66.634064,74.957062 
	C66.105667,76.237282 65.256760,77.516998 64.407860,78.796715 
	C63.933144,78.475372 63.458435,78.154022 62.983723,77.832680 
	C63.540955,77.057823 64.098190,76.282959 64.842789,75.240234 
z"/>
<path fill="#114043" opacity="1.000000" stroke="none" 
	d="
M42.006378,72.324936 
	C41.942200,71.804733 41.955688,71.637009 42.428459,71.229683 
	C46.638058,71.320831 50.388382,71.651588 54.138706,71.982338 
	C54.398785,72.199814 54.658867,72.417297 55.029884,72.870842 
	C54.780731,73.568642 54.420643,74.030373 53.940102,74.760956 
	C50.026291,73.654465 45.349586,76.685913 42.006378,72.324936 
z"/>
<path fill="#3AC2D3" opacity="1.000000" stroke="none" 
	d="
M21.073578,32.085007 
	C25.443066,21.025646 35.405731,17.497601 45.422119,14.115618 
	C47.259144,13.495356 49.281544,13.424120 51.610661,13.543798 
	C51.714134,17.980650 49.239639,19.100805 45.644562,19.035679 
	C43.307472,18.993340 40.421474,18.267822 39.677147,21.865379 
	C37.742832,22.057747 35.738834,21.902378 34.584492,22.818085 
	C30.565418,26.006304 26.840639,29.565514 22.841125,32.749023 
	C22.143383,32.371246 21.608480,32.228127 21.073578,32.085007 
z"/>
<path fill="#32B9C3" opacity="1.000000" stroke="none" 
	d="
M39.997040,22.008730 
	C40.421474,18.267822 43.307472,18.993340 45.644562,19.035679 
	C49.239639,19.100805 51.714134,17.980650 52.009003,13.616205 
	C52.785061,13.483171 53.555061,13.722070 54.631897,13.952360 
	C54.966934,16.054300 54.995129,18.164848 55.044273,21.127895 
	C55.044998,23.591545 55.024780,25.202698 54.559570,26.873034 
	C50.479733,27.217430 46.844879,27.502642 43.120178,27.410316 
	C42.843365,25.129627 43.712055,22.409077 40.038033,22.896238 
	C40.012207,22.403332 40.004623,22.206032 39.997040,22.008730 
z"/>
<path fill="#40B0BC" opacity="1.000000" stroke="none" 
	d="
M20.884636,32.374069 
	C21.608480,32.228127 22.143383,32.371246 22.839870,33.084919 
	C23.000902,34.102890 23.000347,34.550304 22.749832,35.202133 
	C22.953564,38.541782 23.407257,41.677021 23.538773,44.901451 
	C22.194746,45.066494 21.173147,45.199703 20.150993,45.204079 
	C18.783470,45.209938 17.415520,45.115936 16.047752,45.064816 
	C16.031351,43.666962 16.014948,42.269108 16.024027,40.453415 
	C17.598234,37.578098 19.146963,35.120617 20.884636,32.374069 
z"/>
<path fill="#C7E0D8" opacity="1.000000" stroke="none" 
	d="
M78.685242,18.971630 
	C83.061691,19.419117 86.080597,20.791374 85.116257,25.848686 
	C82.005302,23.881382 79.189278,21.717560 76.150345,19.293961 
	C76.715286,19.017902 77.503113,19.001621 78.685242,18.971630 
z"/>
<path fill="#ECF2F4" opacity="1.000000" stroke="none" 
	d="
M35.007923,69.155144 
	C34.849953,69.100914 34.691986,69.046684 34.292183,68.927032 
	C33.590797,68.278893 33.131245,67.696198 32.398537,67.033737 
	C32.125378,66.953972 32.012138,66.491272 32.404373,66.246170 
	C35.372959,66.268799 37.315697,65.731178 37.543575,62.676197 
	C40.630054,63.799805 43.353222,64.799370 46.052277,66.135902 
	C46.015156,66.923088 46.002151,67.373314 45.594086,67.891602 
	C44.134979,68.028221 43.070942,68.096779 42.006901,68.165344 
	C40.568428,68.388626 39.129955,68.611908 37.014328,68.914368 
	C35.894093,69.047401 35.451008,69.101273 35.007923,69.155144 
z"/>
<path fill="#F4FBFB" opacity="1.000000" stroke="none" 
	d="
M37.180267,62.552158 
	C37.315697,65.731178 35.372959,66.268799 32.367676,66.010849 
	C31.289843,64.584503 30.640940,63.148392 29.992846,61.109222 
	C29.995909,60.336151 29.998165,60.166145 30.040815,59.713669 
	C30.127083,57.980034 35.152359,59.147678 31.838921,55.597878 
	C30.571980,51.142902 29.370689,47.054317 28.216606,42.660263 
	C28.567671,40.268032 28.871534,38.181271 29.628834,36.053432 
	C39.361248,36.012360 48.640221,36.012360 58.363766,36.012360 
	C57.483746,33.073486 56.856915,30.980148 56.165455,28.568323 
	C55.735401,27.771175 55.369980,27.292513 55.004562,26.813850 
	C55.024780,25.202698 55.044998,23.591545 55.079926,21.579063 
	C56.467087,20.789011 57.839546,20.400290 59.572186,20.417469 
	C59.570644,22.501087 59.208916,24.178801 58.512657,26.061378 
	C58.831627,29.471045 59.485130,32.675842 60.117104,35.775036 
	C62.618279,35.775036 64.729195,35.747158 66.839058,35.782425 
	C69.221863,35.822250 71.603714,35.918846 73.680038,36.319351 
	C71.710594,36.749306 69.686279,36.308994 68.487289,37.107670 
	C67.338509,37.872890 66.096664,40.507076 66.576317,41.289093 
	C67.567619,42.905319 69.550217,44.410965 71.377518,44.812035 
	C72.324188,45.019817 74.560341,42.940773 74.864471,41.590843 
	C75.255447,39.855408 74.291336,37.814682 74.341095,35.957153 
	C76.498245,36.033016 78.225266,36.057190 79.952278,36.081364 
	C79.977287,36.852200 80.002296,37.623035 80.106094,39.122635 
	C77.564789,42.242878 75.250900,46.106834 72.262733,46.728199 
	C65.431175,48.148758 62.893021,42.250156 59.598530,37.231239 
	C59.441975,38.735718 59.285423,40.240200 59.073517,42.054291 
	C58.341442,42.568253 57.664715,42.772602 57.028084,42.585724 
	C56.646439,41.482105 56.224697,40.769722 55.802956,40.057335 
	C55.114300,40.705444 54.425640,41.353550 53.567879,42.000954 
	C53.398773,42.000244 53.060566,41.999390 53.041206,41.638512 
	C52.680267,39.005215 51.796597,38.240368 49.565086,40.112648 
	C48.165886,40.052189 47.145355,40.049900 45.802814,39.913376 
	C43.969421,39.859119 42.458038,39.939098 40.575027,40.000351 
	C37.310150,40.082478 37.612362,41.402119 38.990501,43.382957 
	C38.980667,43.630035 38.954365,44.123886 38.620155,44.230507 
	C36.391464,47.183247 34.668812,50.037468 37.753830,53.442932 
	C35.677773,55.873169 34.701698,57.902744 38.086369,59.881798 
	C38.037582,60.405788 38.020275,60.615589 37.716148,60.899952 
	C37.346310,61.500397 37.263287,62.026279 37.180267,62.552158 
z"/>
<path fill="#43979F" opacity="1.000000" stroke="none" 
	d="
M15.851465,45.373726 
	C17.415520,45.115936 18.783470,45.209938 20.150993,45.204079 
	C21.173147,45.199703 22.194746,45.066494 23.600801,44.957428 
	C23.985010,44.924206 24.087320,45.052589 24.047541,45.391537 
	C24.368256,46.781128 24.728752,47.831772 25.060585,49.243179 
	C25.014931,50.086285 24.997942,50.568626 24.980955,51.050972 
	C24.813141,51.052036 24.645329,51.053097 24.232735,51.113197 
	C21.630760,51.111790 19.273567,51.051346 16.474354,50.992001 
	C15.906616,49.222942 15.780897,47.452785 15.851465,45.373726 
z"/>
<path fill="#2B6F79" opacity="1.000000" stroke="none" 
	d="
M24.983776,51.456604 
	C24.997942,50.568626 25.014931,50.086285 25.412704,49.325829 
	C26.885258,51.370651 27.977026,53.693592 29.032236,56.376801 
	C29.330593,57.823429 29.665508,58.909782 30.000423,59.996136 
	C29.998165,60.166145 29.995909,60.336151 29.920792,60.749756 
	C28.749666,60.297657 27.072762,59.839008 26.670900,58.858028 
	C25.772211,56.664257 25.508778,54.210243 24.983776,51.456604 
z"/>
<path fill="#091113" opacity="1.000000" stroke="none" 
	d="
M73.985985,35.990749 
	C71.603714,35.918846 69.221863,35.822250 66.839058,35.782425 
	C64.729195,35.747158 62.618279,35.775036 60.117104,35.775036 
	C59.485130,32.675842 58.831627,29.471045 58.798302,26.131001 
	C59.607185,26.048014 59.795883,26.100271 59.998108,26.533001 
	C60.498394,28.787319 60.985146,30.661169 61.578026,32.943565 
	C63.883869,32.189217 65.980370,31.503351 68.422043,30.993526 
	C71.932953,32.107521 71.932953,32.107521 72.107925,26.936117 
	C74.717308,28.718813 77.326683,30.501511 80.103012,32.593292 
	C80.183083,33.695259 80.096199,34.488144 79.980804,35.681194 
	C78.225266,36.057190 76.498245,36.033016 74.340210,35.995754 
	C73.909187,35.982666 73.985985,35.990749 73.985985,35.990749 
z"/>
<path fill="#55B887" opacity="1.000000" stroke="none" 
	d="
M59.984581,26.152531 
	C59.795883,26.100271 59.607185,26.048014 59.132835,25.926134 
	C59.208916,24.178801 59.570644,22.501087 59.936630,20.448463 
	C61.692116,19.602665 63.932240,18.264570 65.059662,18.900171 
	C66.231430,19.560778 66.336548,22.126560 66.889389,23.865171 
	C67.103401,24.538229 67.266045,25.227627 67.798859,26.226429 
	C68.094887,26.718349 68.044136,26.893421 67.572556,27.049820 
	C64.762680,26.738274 62.373631,26.445402 59.984581,26.152531 
z"/>
<path fill="#E5F3F1" opacity="1.000000" stroke="none" 
	d="
M67.993378,27.068493 
	C68.044136,26.893421 68.094887,26.718349 68.122887,26.270927 
	C68.815071,25.067593 69.529999,24.136608 70.244919,23.205624 
	C70.812080,24.216911 71.379250,25.228199 72.027168,26.587803 
	C71.932953,32.107521 71.932953,32.107521 68.440643,30.617001 
	C68.073837,29.065786 68.033607,28.067141 67.993378,27.068493 
z"/>
<path fill="#4E9D7E" opacity="1.000000" stroke="none" 
	d="
M83.973892,34.540680 
	C83.056740,34.452892 82.070038,34.039711 81.072220,33.294754 
	C82.008850,33.380409 82.956596,33.797848 83.973892,34.540680 
z"/>
<path fill="#F0F9FA" opacity="1.000000" stroke="none" 
	d="
M80.792740,49.020599 
	C81.107437,50.101444 81.422134,51.182285 81.789871,52.606400 
	C81.222534,54.214367 80.251457,55.422707 80.037743,56.752743 
	C78.447701,66.648277 75.830894,68.979019 65.471649,68.688049 
	C64.635666,68.237358 64.325211,68.038017 64.068695,67.509468 
	C68.153267,63.127811 73.038124,59.940247 75.397240,54.254307 
	C76.278893,52.129341 78.941940,50.743469 80.792740,49.020599 
z"/>
<path fill="#0B1C1F" opacity="1.000000" stroke="none" 
	d="
M64.014748,67.838684 
	C64.325211,68.038017 64.635666,68.237358 65.042191,68.701569 
	C62.956959,69.039841 60.734402,68.882462 58.607971,69.262688 
	C57.026203,69.545517 55.568977,70.524857 54.097496,71.588165 
	C50.388382,71.651588 46.638058,71.320831 42.442963,70.977699 
	C42.000000,70.265572 42.001804,69.565834 42.005257,68.515717 
	C43.070942,68.096779 44.134979,68.028221 46.056877,67.970802 
	C52.614735,67.934189 58.314743,67.886436 64.014748,67.838684 
z"/>
<path fill="#DFE7EB" opacity="1.000000" stroke="none" 
	d="
M64.068695,67.509468 
	C58.314743,67.886436 52.614735,67.934189 46.451939,67.902740 
	C46.002151,67.373314 46.015156,66.923088 46.493187,66.209175 
	C55.128830,66.442711 62.478352,64.705330 68.403595,58.029755 
	C74.674530,48.791313 74.893150,48.579472 80.841202,46.141602 
	C80.866608,46.863865 80.892014,47.586124 80.855080,48.664497 
	C78.941940,50.743469 76.278893,52.129341 75.397240,54.254307 
	C73.038124,59.940247 68.153267,63.127811 64.068695,67.509468 
z"/>
<path fill="#0E171A" opacity="1.000000" stroke="none" 
	d="
M81.174294,45.981674 
	C74.893150,48.579472 74.674530,48.791313 68.382706,57.644623 
	C68.004486,56.903667 67.979378,56.389973 67.992905,55.480930 
	C68.548615,53.609558 69.065689,52.133533 69.187553,51.785683 
	C65.390404,47.995213 62.259636,44.869946 59.128868,41.744678 
	C59.285423,40.240200 59.441975,38.735718 59.598530,37.231239 
	C62.893021,42.250156 65.431175,48.148758 72.262733,46.728199 
	C75.250900,46.106834 77.564789,42.242878 80.239517,39.484444 
	C81.175056,38.878826 82.055954,38.640160 83.981987,38.118328 
	C83.001289,41.171230 82.254341,43.496487 81.174294,45.981674 
z"/>
<path fill="#114043" opacity="1.000000" stroke="none" 
	d="
M40.186588,72.902832 
	C40.153881,72.721542 40.365822,72.442940 40.832130,72.080048 
	C40.868076,72.265663 40.649658,72.535583 40.186588,72.902832 
z"/>
<path fill="#0B1C1F" opacity="1.000000" stroke="none" 
	d="
M35.013142,69.486153 
	C35.451008,69.101273 35.894093,69.047401 36.664909,69.073608 
	C36.694836,69.948936 36.397034,70.744186 36.099228,71.539436 
	C35.738937,70.965347 35.378651,70.391251 35.013142,69.486153 
z"/>
<path fill="#41AAB8" opacity="1.000000" stroke="none" 
	d="
M22.999790,34.997723 
	C23.000347,34.550304 23.000902,34.102890 23.002712,33.319572 
	C26.840639,29.565514 30.565418,26.006304 34.584492,22.818085 
	C35.738834,21.902378 37.742832,22.057747 39.677147,21.865379 
	C40.004623,22.206032 40.012207,22.403332 40.029041,23.274426 
	C39.972603,24.953756 39.906914,25.959291 39.449184,26.957392 
	C32.818539,26.211060 30.853634,31.214159 28.032871,34.842422 
	C26.327126,34.706547 24.663458,34.852135 22.999790,34.997723 
z"/>
<path fill="#102026" opacity="1.000000" stroke="none" 
	d="
M54.559570,26.873034 
	C55.369980,27.292513 55.735401,27.771175 55.813530,28.716320 
	C52.648888,29.920012 49.771545,30.657219 46.894199,31.394424 
	C46.961441,31.810379 47.028683,32.226334 47.095921,32.642288 
	C45.784382,32.095200 44.472847,31.548113 43.094742,30.603765 
	C43.088795,29.400290 43.149414,28.594072 43.210030,27.787855 
	C46.844879,27.502642 50.479733,27.217430 54.559570,26.873034 
z"/>
<path fill="#ECFDFB" opacity="1.000000" stroke="none" 
	d="
M43.120178,27.410316 
	C43.149414,28.594072 43.088795,29.400290 42.927238,30.949900 
	C42.074734,32.147820 41.323170,32.602348 40.190025,33.287643 
	C40.053783,30.817924 39.947502,28.891376 39.841225,26.964828 
	C39.906914,25.959291 39.972603,24.953756 40.047287,23.570032 
	C43.712055,22.409077 42.843365,25.129627 43.120178,27.410316 
z"/>
<path fill="#28A2B3" opacity="1.000000" stroke="none" 
	d="
M22.749830,35.202133 
	C24.663458,34.852135 26.327126,34.706547 28.119749,35.088684 
	C28.557602,35.775772 28.866499,35.935139 29.175396,36.094505 
	C28.871534,38.181271 28.567671,40.268032 27.902519,42.774002 
	C26.389927,43.813000 25.238623,44.432793 24.087320,45.052589 
	C24.087320,45.052589 23.985010,44.924206 23.922981,44.868233 
	C23.407257,41.677021 22.953564,38.541782 22.749830,35.202133 
z"/>
<path fill="#0D1215" opacity="1.000000" stroke="none" 
	d="
M67.954269,55.876278 
	C67.979378,56.389973 68.004486,56.903667 68.050484,57.802494 
	C62.478352,64.705330 55.128830,66.442711 46.517307,65.872215 
	C43.353222,64.799370 40.630054,63.799805 37.543575,62.676197 
	C37.263287,62.026279 37.346310,61.500397 38.106506,60.977951 
	C49.689816,66.037079 59.428719,64.423218 67.954269,55.876278 
z"/>
<path fill="#F4FDFD" opacity="1.000000" stroke="none" 
	d="
M67.992905,55.480930 
	C59.428719,64.423218 49.689816,66.037079 38.393326,60.903389 
	C38.020275,60.615589 38.037582,60.405788 38.456741,59.926102 
	C44.100433,58.798229 42.085625,55.761547 41.018967,52.644958 
	C41.812046,51.103100 42.453949,49.880428 42.895691,49.039017 
	C41.393284,47.165401 40.173824,45.644646 38.954365,44.123886 
	C38.954365,44.123886 38.980667,43.630035 39.287354,43.229389 
	C40.044907,41.892189 40.495781,40.955631 40.946655,40.019077 
	C42.458038,39.939098 43.969421,39.859119 45.756485,40.278076 
	C46.229988,44.713272 48.231285,42.734577 50.143051,42.065071 
	C51.297977,42.121895 52.179272,42.060642 53.060566,41.999390 
	C53.060566,41.999390 53.398773,42.000244 53.780827,42.295689 
	C55.104584,42.719742 56.046288,42.848347 56.987991,42.976952 
	C57.664715,42.772602 58.341442,42.568253 59.073517,42.054291 
	C62.259636,44.869946 65.390404,47.995213 69.187553,51.785683 
	C69.065689,52.133533 68.548615,53.609558 67.992905,55.480930 
M47.380211,59.806725 
	C50.129848,59.335358 51.808453,57.910530 50.166336,55.176567 
	C49.690041,54.383583 47.443851,54.653667 46.009014,54.436420 
	C46.203781,56.214741 46.398552,57.993065 47.380211,59.806725 
M53.027500,50.348022 
	C54.583267,50.804989 56.124050,51.441750 57.706909,51.573704 
	C58.040630,51.601524 59.128117,49.422466 58.810863,48.888351 
	C58.280155,47.994835 56.807968,47.020409 55.897911,47.160160 
	C54.845108,47.321831 53.971661,48.651451 53.027500,50.348022 
M57.057854,59.015457 
	C57.485191,57.699863 57.912525,56.384270 58.339867,55.068680 
	C57.167290,54.742298 55.788239,53.887524 54.881638,54.241787 
	C54.017307,54.579544 52.950367,56.455334 53.228966,57.153786 
	C53.597775,58.078384 55.188606,58.515545 57.057854,59.015457 
M49.344555,50.050777 
	C48.677910,49.152069 48.011261,48.253365 47.344616,47.354656 
	C46.912960,48.010048 46.481300,48.665440 46.049641,49.320827 
	C46.976040,49.741127 47.902435,50.161423 49.344555,50.050777 
z"/>
<path fill="#0C161B" opacity="1.000000" stroke="none" 
	d="
M29.628834,36.053432 
	C28.866499,35.935139 28.557602,35.775772 28.161827,35.370148 
	C30.853634,31.214159 32.818539,26.211060 39.449188,26.957392 
	C39.947502,28.891376 40.053783,30.817924 40.190025,33.287643 
	C41.323170,32.602348 42.074734,32.147820 42.993805,31.347158 
	C44.472847,31.548113 45.784382,32.095200 47.095921,32.642288 
	C47.028683,32.226334 46.961441,31.810379 46.894199,31.394424 
	C49.771545,30.657219 52.648888,29.920012 55.878159,29.034809 
	C56.856915,30.980148 57.483746,33.073486 58.363766,36.012360 
	C48.640221,36.012360 39.361248,36.012360 29.628834,36.053432 
z"/>
<path fill="#131B1D" opacity="1.000000" stroke="none" 
	d="
M73.910072,35.944065 
	C74.291336,37.814682 75.255447,39.855408 74.864471,41.590843 
	C74.560341,42.940773 72.324188,45.019817 71.377518,44.812035 
	C69.550217,44.410965 67.567619,42.905319 66.576317,41.289093 
	C66.096664,40.507076 67.338509,37.872890 68.487289,37.107670 
	C69.686279,36.308994 71.710594,36.749306 73.680038,36.319351 
	C73.985985,35.990749 73.909187,35.982666 73.910072,35.944065 
z"/>
<path fill="#031720" opacity="1.000000" stroke="none" 
	d="
M24.047541,45.391537 
	C25.238623,44.432793 26.389927,43.813000 27.855316,43.079468 
	C29.370689,47.054317 30.571980,51.142902 31.559429,55.686775 
	C30.586657,56.100220 29.827726,56.058376 29.068794,56.016533 
	C27.977026,53.693592 26.885258,51.370651 25.441368,48.965065 
	C24.728752,47.831772 24.368256,46.781128 24.047541,45.391537 
z"/>
<path fill="#308B99" opacity="1.000000" stroke="none" 
	d="
M38.620155,44.230507 
	C40.173824,45.644646 41.393284,47.165401 42.895691,49.039017 
	C42.453949,49.880428 41.812046,51.103100 40.645153,52.678108 
	C39.370735,53.061565 38.621311,53.092686 37.871883,53.123810 
	C34.668812,50.037468 36.391464,47.183247 38.620155,44.230507 
z"/>
<path fill="#6CC5A6" opacity="1.000000" stroke="none" 
	d="
M37.753830,53.442932 
	C38.621311,53.092686 39.370735,53.061565 40.493977,52.997292 
	C42.085625,55.761547 44.100433,58.798229 38.488224,59.611912 
	C34.701698,57.902744 35.677773,55.873169 37.753830,53.442932 
z"/>
<path fill="#E5FFFF" opacity="1.000000" stroke="none" 
	d="
M53.041206,41.638512 
	C52.179272,42.060642 51.297977,42.121895 50.180145,41.770599 
	C49.943653,40.962303 49.943703,40.566563 49.943756,40.170818 
	C51.796597,38.240368 52.680267,39.005215 53.041206,41.638512 
z"/>
<path fill="#ECF2F4" opacity="1.000000" stroke="none" 
	d="
M29.032236,56.376804 
	C29.827726,56.058376 30.586657,56.100220 31.625080,56.053169 
	C35.152359,59.147678 30.127083,57.980034 30.040813,59.713669 
	C29.665508,58.909782 29.330593,57.823429 29.032236,56.376804 
z"/>
<path fill="#37C9C0" opacity="1.000000" stroke="none" 
	d="
M49.565086,40.112648 
	C49.943703,40.566563 49.943653,40.962303 49.906509,41.652519 
	C48.231285,42.734577 46.229988,44.713272 46.078491,40.412312 
	C47.145355,40.049900 48.165886,40.052189 49.565086,40.112648 
z"/>
<path fill="#2AAEC2" opacity="1.000000" stroke="none" 
	d="
M57.028084,42.585724 
	C56.046288,42.848347 55.104584,42.719742 53.949932,42.296394 
	C54.425640,41.353550 55.114300,40.705444 55.802956,40.057335 
	C56.224697,40.769722 56.646439,41.482105 57.028084,42.585724 
z"/>
<path fill="#2DBBCE" opacity="1.000000" stroke="none" 
	d="
M40.575027,40.000351 
	C40.495781,40.955631 40.044907,41.892189 39.297184,42.982311 
	C37.612362,41.402119 37.310150,40.082478 40.575027,40.000351 
z"/>
<path fill="#0D1D1D" opacity="1.000000" stroke="none" 
	d="
M67.572556,27.049820 
	C68.033607,28.067141 68.073837,29.065786 68.095474,30.440960 
	C65.980370,31.503351 63.883869,32.189217 61.578026,32.943565 
	C60.985146,30.661169 60.498394,28.787319 59.998108,26.533001 
	C62.373631,26.445402 64.762680,26.738274 67.572556,27.049820 
z"/>
<path fill="#1D2A2D" opacity="1.000000" stroke="none" 
	d="
M46.986767,59.789055 
	C46.398552,57.993065 46.203781,56.214741 46.009014,54.436420 
	C47.443851,54.653667 49.690041,54.383583 50.166336,55.176567 
	C51.808453,57.910530 50.129848,59.335358 46.986767,59.789055 
z"/>
<path fill="#142129" opacity="1.000000" stroke="none" 
	d="
M53.023926,49.911011 
	C53.971661,48.651451 54.845108,47.321831 55.897911,47.160160 
	C56.807968,47.020409 58.280155,47.994835 58.810863,48.888351 
	C59.128117,49.422466 58.040630,51.601524 57.706909,51.573704 
	C56.124050,51.441750 54.583267,50.804989 53.023926,49.911011 
z"/>
<path fill="#54C3BA" opacity="1.000000" stroke="none" 
	d="
M56.656044,59.088829 
	C55.188606,58.515545 53.597775,58.078384 53.228966,57.153786 
	C52.950367,56.455334 54.017307,54.579544 54.881638,54.241787 
	C55.788239,53.887524 57.167290,54.742298 58.339867,55.068680 
	C57.912525,56.384270 57.485191,57.699863 56.656044,59.088829 
z"/>
<path fill="#4AC78A" opacity="1.000000" stroke="none" 
	d="
M49.086693,50.316246 
	C47.902435,50.161423 46.976040,49.741127 46.049641,49.320827 
	C46.481300,48.665440 46.912960,48.010048 47.344616,47.354656 
	C48.011261,48.253365 48.677910,49.152069 49.086693,50.316246 
z"/>
</svg>