 <svg  version="1.0" xmlns="http://www.w3.org/2000/svg"  width="450.000000pt" height="450.000000pt" viewBox="0 0 450.000000 450.000000"  preserveAspectRatio="xMidYMid meet">  <g transform="translate(0.000000,450.000000) scale(0.100000,-0.100000)" fill="#0b1313" stroke="none"> <path d="M343 4443 l-293 -3 0 -285 0 -285 295 0 295 0 0 290 c0 160 -1 289 -2 288 -2 -2 -135 -4 -295 -5z m272 -24 c8 -8 7 -492 -1 -513 -5 -13 -29 -16 -148 -17 -255 -2 -371 2 -383 13 -10 8 -13 72 -13 263 0 138 3 255 7 259 9 8 529 4 538 -5z"/> <path d="M288 4369 c-109 -30 -180 -154 -148 -255 26 -80 87 -133 173 -149 29 -6 37 -4 37 8 0 9 -14 16 -41 20 -74 10 -150 86 -148 148 1 19 3 17 11 -11 20 -72 65 -111 142 -126 34 -6 38 -5 33 9 -7 20 9 32 26 20 7 -5 28 -10 48 -12 30 -2 41 3 67 34 33 37 43 89 20 98 -10 4 -10 6 0 6 6 1 12 12 12 26 0 14 5 25 11 25 7 0 9 -10 5 -25 -5 -18 -2 -25 9 -25 19 0 19 41 0 90 -13 33 -14 33 -21 13 -8 -28 -21 -30 -29 -4 -3 10 -14 26 -25 36 -19 17 -20 17 -20 -3 0 -13 -6 -22 -15 -22 -8 0 -15 6 -15 14 0 8 -10 16 -22 18 l-23 3 24 22 c20 19 26 20 37 8 8 -7 23 -16 34 -20 10 -3 22 -15 25 -27 5 -15 10 -17 18 -8 26 25 -104 99 -173 98 -14 -1 -37 -4 -52 -9z m57 -37 c6 -15 8 -14 16 6 4 12 13 22 19 22 14 0 13 -27 -1 -32 -8 -3 -10 -17 -5 -42 7 -35 10 -37 39 -35 66 4 77 1 77 -26 0 -18 -8 -29 -26 -37 -30 -14 -53 -4 -70 31 -7 14 -14 19 -19 12 -3 -6 8 -25 25 -42 34 -35 33 -58 -3 -81 -54 -35 -111 -31 -157 12 -26 24 -30 35 -30 79 l0 51 79 0 c78 0 78 0 73 25 -3 20 -10 25 -33 25 -30 0 -41 23 -16 34 6 3 3 5 -8 3 -16 -2 -19 -8 -17 -35 2 -18 -1 -32 -7 -32 -10 0 -15 16 -14 47 0 6 -6 9 -14 6 -7 -3 -12 -7 -10 -10 3 -2 -13 -22 -34 -43 -37 -37 -51 -70 -30 -70 6 0 9 -8 8 -19 -1 -12 -7 -17 -19 -13 -23 6 -34 22 -21 31 6 3 13 19 17 34 10 40 65 96 111 111 44 15 60 12 70 -12z m145 -195 c0 -73 -21 -81 -213 -78 -45 1 -50 4 -60 31 -6 17 -15 30 -19 30 -4 0 -8 6 -8 14 0 8 15 -1 35 -20 42 -39 92 -51 145 -35 38 11 80 51 80 77 0 11 14 21 33 23 4 1 7 -19 7 -42z"/> <path d="M416 4232 c-11 -18 7 -35 30 -30 21 4 26 29 6 36 -7 2 -10 -2 -6 -12 3 -9 1 -16 -4 -16 -6 0 -12 8 -14 18 -3 13 -5 14 -12 4z"/> <path d="M256 4223 c-11 -11 -6 -23 9 -23 8 0 15 4 15 9 0 13 -16 22 -24 14z"/> <path d="M300 4215 c0 -8 5 -15 10 -15 6 0 10 7 10 15 0 8 -4 15 -10 15 -5 0 -10 -7 -10 -15z"/> <path d="M346 4223 c-11 -11 -6 -23 9 -23 8 0 15 4 15 9 0 13 -16 22 -24 14z"/> <path d="M250 4165 c0 -8 7 -15 15 -15 8 0 15 7 15 15 0 8 -7 15 -15 15 -8 0 -15 -7 -15 -15z"/> <path d="M300 4165 c0 -8 5 -15 10 -15 6 0 10 7 10 15 0 8 -4 15 -10 15 -5 0 -10 -7 -10 -15z"/> <path d="M340 4165 c0 -8 7 -15 15 -15 8 0 15 7 15 15 0 8 -7 15 -15 15 -8 0 -15 -7 -15 -15z"/> <path d="M252 4128 c6 -18 28 -21 28 -4 0 9 -7 16 -16 16 -9 0 -14 -5 -12 -12z"/> <path d="M295 4130 c-3 -6 1 -13 10 -16 19 -8 30 0 20 15 -8 14 -22 14 -30 1z"/> <path d="M347 4133 c-12 -11 -8 -23 8 -23 8 0 15 7 15 15 0 16 -12 20 -23 8z"/> <path d="M470 4350 c0 -5 7 -10 15 -10 8 0 15 5 15 10 0 6 -7 10 -15 10 -8 0 -15 -4 -15 -10z"/> <path d="M543 4143 c-7 -3 -13 -18 -13 -35 0 -23 -10 -41 -41 -70 -35 -33 -47 -39 -75 -36 -25 3 -34 0 -37 -14 -10 -35 68 -13 121 36 46 41 79 130 45 119z"/> <path d="M313 3923 c26 -2 68 -2 95 0 26 2 4 3 -48 3 -52 0 -74 -1 -47 -3z"/> <path d="M980 4325 l0 -55 44 0 c50 0 76 19 76 55 0 31 -35 55 -82 55 l-38 0 0 -55z m76 10 c6 -25 -9 -55 -27 -55 -5 0 -9 18 -9 40 0 46 25 57 36 15z"/> <path d="M1339 4353 c-3 -42 4 -79 15 -85 20 -13 31 -2 28 27 -2 16 2 31 10 36 10 7 10 9 1 9 -7 0 -13 7 -13 15 0 22 -40 19 -41 -2z"/> <path d="M1127 4333 c-16 -15 -6 -54 16 -64 48 -22 100 24 65 59 -13 13 -70 17 -81 5z m53 -28 c0 -14 -4 -25 -9 -25 -12 0 -19 21 -13 38 8 21 22 13 22 -13z"/> <path d="M1247 4333 c-4 -3 -7 -17 -7 -30 0 -28 39 -50 67 -38 17 8 17 8 -2 13 -24 5 -35 20 -28 39 4 10 9 11 19 2 16 -13 30 -6 19 10 -7 12 -58 15 -68 4z"/> <path d="M1422 4328 c-35 -35 16 -81 66 -59 18 9 23 18 20 39 -3 23 -8 27 -38 30 -19 2 -41 -3 -48 -10z m52 -14 c7 -18 0 -34 -15 -34 -5 0 -9 11 -9 25 0 28 15 34 24 9z"/> <path d="M1530 4306 c0 -20 6 -36 14 -39 19 -7 26 1 26 30 0 24 14 31 25 13 8 -13 25 -3 25 16 0 10 -12 14 -45 14 -44 0 -45 0 -45 -34z"/> <path d="M1200 4195 c0 -8 9 -15 20 -15 11 0 20 7 20 15 0 8 -9 15 -20 15 -11 0 -20 -7 -20 -15z"/> <path d="M724 4184 c4 -9 -3 -32 -14 -52 -24 -40 -21 -49 9 -30 17 10 25 10 41 0 11 -6 28 -12 39 -12 18 0 17 3 -7 55 -21 44 -30 55 -50 55 -18 0 -23 -4 -18 -16z m26 -49 c0 -8 -4 -15 -10 -15 -5 0 -10 7 -10 15 0 8 5 15 10 15 6 0 10 -7 10 -15z"/> <path d="M1380 4156 c0 -50 9 -66 38 -66 20 0 23 3 14 12 -15 15 -16 48 -1 48 8 0 9 4 0 13 -6 8 -8 17 -4 20 3 4 -6 7 -20 7 -24 0 -27 -4 -27 -34z"/> <path d="M1858 4173 c-9 -37 6 -78 30 -81 20 -3 22 0 16 23 -4 18 -2 30 6 35 11 7 10 11 -3 24 -21 21 -44 20 -49 -1z"/> <path d="M830 4108 c0 -51 2 -58 20 -58 13 0 20 7 20 20 0 14 7 20 24 20 30 0 50 23 41 50 -7 21 -8 21 -67 24 l-38 1 0 -57z m65 17 c0 -10 -6 -20 -12 -22 -8 -3 -13 5 -13 22 0 17 5 25 13 23 6 -3 12 -13 12 -23z"/> <path d="M993 4163 c-32 -4 -33 -6 -33 -49 0 -24 -1 -47 -2 -51 -2 -5 7 -9 20 -11 16 -3 22 2 22 17 0 14 8 21 28 23 19 2 28 9 30 26 3 22 -14 54 -27 50 -3 0 -21 -3 -38 -5z m30 -26 c3 -8 1 -20 -4 -28 -11 -19 -34 3 -26 25 8 20 23 21 30 3z"/> <path d="M1098 4159 c-10 -5 -18 -21 -18 -33 0 -25 17 -36 54 -36 48 0 64 54 20 70 -31 12 -34 12 -56 -1z m42 -34 c0 -14 -4 -25 -10 -25 -5 0 -10 11 -10 25 0 14 5 25 10 25 6 0 10 -11 10 -25z"/> <path d="M1293 4163 c-30 -4 -33 -7 -33 -39 0 -27 4 -34 20 -34 16 0 20 7 20 30 0 17 5 30 10 30 6 0 10 -13 10 -30 0 -23 4 -30 20 -30 15 0 20 7 20 28 0 26 -17 54 -29 50 -4 0 -21 -3 -38 -5z"/> <path d="M1458 4128 c-3 -34 -1 -38 19 -38 17 0 21 5 20 24 -1 14 3 25 8 25 6 0 9 -11 8 -25 -1 -18 3 -24 18 -24 14 0 19 7 19 24 0 14 5 28 10 31 6 4 10 -7 10 -24 0 -24 4 -31 20 -31 16 0 20 7 20 35 0 19 -3 35 -7 36 -5 0 -38 1 -75 2 l-66 2 -4 -37z"/> <path d="M1648 4159 c-22 -13 -23 -55 -2 -63 9 -3 28 -6 42 -5 l27 0 -25 11 c-23 10 -23 11 -5 15 34 8 42 23 21 39 -23 16 -35 17 -58 3z"/> <path d="M1740 4128 c0 -31 4 -38 20 -38 16 0 20 7 20 31 0 17 4 28 10 24 6 -3 10 -17 10 -31 0 -17 5 -24 20 -24 21 0 23 8 11 49 -6 21 -13 25 -49 26 l-42 1 0 -38z"/> <path d="M1200 4125 c0 -28 4 -35 20 -35 16 0 20 7 20 35 0 28 -4 35 -20 35 -16 0 -20 -7 -20 -35z"/> </g> </svg> 